<mxfile host="app.diagrams.net" modified="2023-08-14T06:47:02.970Z" agent="Mozilla/5.0 (Macintosh; Intel Mac OS X 10.15; rv:102.0) Gecko/20100101 Firefox/102.0" etag="wYGzLB7hlYEsprnkL0Vg" version="21.6.6" type="github">
  <diagram name="Page-1" id="7Ne0HsS07pFZg0ll6Zks">
    <mxGraphModel dx="1210" dy="1073" grid="1" gridSize="10" guides="1" tooltips="1" connect="1" arrows="1" fold="1" page="1" pageScale="1" pageWidth="850" pageHeight="1100" math="0" shadow="0">
      <root>
        <mxCell id="0" />
        <mxCell id="1" parent="0" />
        <mxCell id="2CN7Ey3Kalx0yVImq6Pz-10" value="" style="edgeStyle=orthogonalEdgeStyle;rounded=0;orthogonalLoop=1;jettySize=auto;html=1;" edge="1" parent="1" source="2CN7Ey3Kalx0yVImq6Pz-1" target="2CN7Ey3Kalx0yVImq6Pz-3">
          <mxGeometry relative="1" as="geometry">
            <mxPoint x="306" y="329" as="targetPoint" />
          </mxGeometry>
        </mxCell>
        <mxCell id="2CN7Ey3Kalx0yVImq6Pz-14" value="" style="edgeStyle=orthogonalEdgeStyle;rounded=0;orthogonalLoop=1;jettySize=auto;html=1;entryX=0;entryY=0.75;entryDx=0;entryDy=0;entryPerimeter=0;exitX=1;exitY=0.75;exitDx=0;exitDy=0;exitPerimeter=0;" edge="1" parent="1" source="2CN7Ey3Kalx0yVImq6Pz-1" target="2CN7Ey3Kalx0yVImq6Pz-5">
          <mxGeometry relative="1" as="geometry">
            <mxPoint x="544" y="329" as="targetPoint" />
          </mxGeometry>
        </mxCell>
        <mxCell id="2CN7Ey3Kalx0yVImq6Pz-1" value="" style="sketch=0;points=[[0,0,0],[0.25,0,0],[0.5,0,0],[0.75,0,0],[1,0,0],[0,1,0],[0.25,1,0],[0.5,1,0],[0.75,1,0],[1,1,0],[0,0.25,0],[0,0.5,0],[0,0.75,0],[1,0.25,0],[1,0.5,0],[1,0.75,0]];gradientDirection=north;outlineConnect=0;fillColor=#dae8fc;strokeColor=#6c8ebf;dashed=0;verticalLabelPosition=bottom;verticalAlign=top;align=center;html=1;fontSize=12;fontStyle=0;aspect=fixed;shape=mxgraph.aws4.resourceIcon;resIcon=mxgraph.aws4.general;" vertex="1" parent="1">
          <mxGeometry x="386" y="290" width="78" height="78" as="geometry" />
        </mxCell>
        <mxCell id="2CN7Ey3Kalx0yVImq6Pz-2" value="&lt;font face=&quot;Comic Sans MS&quot;&gt;Proxy&lt;/font&gt;" style="text;html=1;align=center;verticalAlign=middle;resizable=0;points=[];autosize=1;strokeColor=none;fillColor=none;" vertex="1" parent="1">
          <mxGeometry x="395" y="388" width="60" height="30" as="geometry" />
        </mxCell>
        <mxCell id="2CN7Ey3Kalx0yVImq6Pz-8" value="" style="edgeStyle=orthogonalEdgeStyle;rounded=0;orthogonalLoop=1;jettySize=auto;html=1;entryX=0;entryY=0.5;entryDx=0;entryDy=0;entryPerimeter=0;" edge="1" parent="1">
          <mxGeometry relative="1" as="geometry">
            <mxPoint x="237.97951553329858" y="328.5" as="sourcePoint" />
            <mxPoint x="386" y="328.5" as="targetPoint" />
          </mxGeometry>
        </mxCell>
        <mxCell id="2CN7Ey3Kalx0yVImq6Pz-3" value="" style="sketch=0;outlineConnect=0;fontColor=#232F3E;gradientColor=none;fillColor=#232F3D;strokeColor=none;dashed=0;verticalLabelPosition=bottom;verticalAlign=top;align=center;html=1;fontSize=12;fontStyle=0;aspect=fixed;pointerEvents=1;shape=mxgraph.aws4.external_sdk;" vertex="1" parent="1">
          <mxGeometry x="170" y="290" width="68" height="78" as="geometry" />
        </mxCell>
        <mxCell id="2CN7Ey3Kalx0yVImq6Pz-4" value="&lt;font face=&quot;Comic Sans MS&quot;&gt;Dedicated Server&lt;br&gt;&lt;/font&gt;" style="text;html=1;align=center;verticalAlign=middle;resizable=0;points=[];autosize=1;strokeColor=none;fillColor=none;" vertex="1" parent="1">
          <mxGeometry x="144" y="388" width="120" height="30" as="geometry" />
        </mxCell>
        <mxCell id="2CN7Ey3Kalx0yVImq6Pz-12" value="" style="edgeStyle=orthogonalEdgeStyle;rounded=0;orthogonalLoop=1;jettySize=auto;html=1;exitX=0;exitY=0.25;exitDx=0;exitDy=0;exitPerimeter=0;" edge="1" parent="1" source="2CN7Ey3Kalx0yVImq6Pz-5">
          <mxGeometry relative="1" as="geometry">
            <mxPoint x="460" y="310" as="targetPoint" />
            <Array as="points">
              <mxPoint x="464" y="310" />
            </Array>
          </mxGeometry>
        </mxCell>
        <mxCell id="2CN7Ey3Kalx0yVImq6Pz-5" value="" style="sketch=0;points=[[0,0,0],[0.25,0,0],[0.5,0,0],[0.75,0,0],[1,0,0],[0,1,0],[0.25,1,0],[0.5,1,0],[0.75,1,0],[1,1,0],[0,0.25,0],[0,0.5,0],[0,0.75,0],[1,0.25,0],[1,0.5,0],[1,0.75,0]];outlineConnect=0;fontColor=#232F3E;gradientColor=#4AB29A;gradientDirection=north;fillColor=#116D5B;strokeColor=#ffffff;dashed=0;verticalLabelPosition=bottom;verticalAlign=top;align=center;html=1;fontSize=12;fontStyle=0;aspect=fixed;shape=mxgraph.aws4.resourceIcon;resIcon=mxgraph.aws4.sagemaker;" vertex="1" parent="1">
          <mxGeometry x="601" y="290" width="78" height="78" as="geometry" />
        </mxCell>
        <mxCell id="2CN7Ey3Kalx0yVImq6Pz-6" value="&lt;font face=&quot;Comic Sans MS&quot;&gt;SageMaker&lt;/font&gt;" style="text;html=1;align=center;verticalAlign=middle;resizable=0;points=[];autosize=1;strokeColor=none;fillColor=none;" vertex="1" parent="1">
          <mxGeometry x="594" y="388" width="90" height="30" as="geometry" />
        </mxCell>
        <mxCell id="2CN7Ey3Kalx0yVImq6Pz-15" value="&lt;div align=&quot;left&quot;&gt;&lt;font face=&quot;Comic Sans MS&quot;&gt;1. http&lt;/font&gt;&lt;/div&gt;&lt;div align=&quot;left&quot;&gt;&lt;font face=&quot;Comic Sans MS&quot;&gt;2. websocket&lt;br&gt;&lt;/font&gt;&lt;/div&gt;&lt;div align=&quot;left&quot;&gt;&lt;font face=&quot;Comic Sans MS&quot;&gt;3. TCP&lt;/font&gt;&lt;/div&gt;&lt;div align=&quot;left&quot;&gt;&lt;font face=&quot;Comic Sans MS&quot;&gt;4. UDP&lt;/font&gt;&lt;/div&gt;&lt;div align=&quot;left&quot;&gt;&lt;font face=&quot;Comic Sans MS&quot;&gt;&lt;br&gt;&lt;/font&gt;&lt;/div&gt;" style="text;html=1;align=left;verticalAlign=middle;resizable=0;points=[];autosize=1;strokeColor=none;fillColor=none;" vertex="1" parent="1">
          <mxGeometry x="280" y="328" width="100" height="90" as="geometry" />
        </mxCell>
        <mxCell id="2CN7Ey3Kalx0yVImq6Pz-16" value="&lt;font face=&quot;Comic Sans MS&quot;&gt;http req&lt;/font&gt;" style="text;html=1;align=center;verticalAlign=middle;resizable=0;points=[];autosize=1;strokeColor=none;fillColor=none;" vertex="1" parent="1">
          <mxGeometry x="490" y="314" width="70" height="30" as="geometry" />
        </mxCell>
        <mxCell id="2CN7Ey3Kalx0yVImq6Pz-17" value="&lt;font face=&quot;Comic Sans MS&quot;&gt;http res&lt;/font&gt;" style="text;html=1;align=center;verticalAlign=middle;resizable=0;points=[];autosize=1;strokeColor=none;fillColor=none;" vertex="1" parent="1">
          <mxGeometry x="490" y="350" width="70" height="30" as="geometry" />
        </mxCell>
        <mxCell id="2CN7Ey3Kalx0yVImq6Pz-18" value="&lt;div align=&quot;left&quot;&gt;&lt;font face=&quot;Comic Sans MS&quot;&gt;1. Init&lt;br&gt;2. State&lt;br&gt;3. Reset&lt;br&gt;4.Action&lt;/font&gt;&lt;/div&gt;" style="text;html=1;align=left;verticalAlign=middle;resizable=0;points=[];autosize=1;strokeColor=none;fillColor=none;" vertex="1" parent="1">
          <mxGeometry x="394" y="210" width="70" height="80" as="geometry" />
        </mxCell>
      </root>
    </mxGraphModel>
  </diagram>
</mxfile>
